%TF.GenerationSoftware,KiCad,Pcbnew,5.1.7-a382d34a8~88~ubuntu16.04.1*%
%TF.CreationDate,2022-04-01T08:50:37-04:00*%
%TF.ProjectId,MSP430FR2433Breakout,4d535034-3330-4465-9232-343333427265,rev?*%
%TF.SameCoordinates,Original*%
%TF.FileFunction,Paste,Top*%
%TF.FilePolarity,Positive*%
%FSLAX46Y46*%
G04 Gerber Fmt 4.6, Leading zero omitted, Abs format (unit mm)*
G04 Created by KiCad (PCBNEW 5.1.7-a382d34a8~88~ubuntu16.04.1) date 2022-04-01 08:50:37*
%MOMM*%
%LPD*%
G01*
G04 APERTURE LIST*
%ADD10R,1.000000X1.800000*%
G04 APERTURE END LIST*
%TO.C,U4*%
G36*
G01*
X101590000Y-50460001D02*
X101590000Y-49789999D01*
G75*
G02*
X101839999Y-49540000I249999J0D01*
G01*
X102510001Y-49540000D01*
G75*
G02*
X102760000Y-49789999I0J-249999D01*
G01*
X102760000Y-50460001D01*
G75*
G02*
X102510001Y-50710000I-249999J0D01*
G01*
X101839999Y-50710000D01*
G75*
G02*
X101590000Y-50460001I0J249999D01*
G01*
G37*
G36*
G01*
X101590000Y-49110001D02*
X101590000Y-48439999D01*
G75*
G02*
X101839999Y-48190000I249999J0D01*
G01*
X102510001Y-48190000D01*
G75*
G02*
X102760000Y-48439999I0J-249999D01*
G01*
X102760000Y-49110001D01*
G75*
G02*
X102510001Y-49360000I-249999J0D01*
G01*
X101839999Y-49360000D01*
G75*
G02*
X101590000Y-49110001I0J249999D01*
G01*
G37*
G36*
G01*
X100240000Y-50460001D02*
X100240000Y-49789999D01*
G75*
G02*
X100489999Y-49540000I249999J0D01*
G01*
X101160001Y-49540000D01*
G75*
G02*
X101410000Y-49789999I0J-249999D01*
G01*
X101410000Y-50460001D01*
G75*
G02*
X101160001Y-50710000I-249999J0D01*
G01*
X100489999Y-50710000D01*
G75*
G02*
X100240000Y-50460001I0J249999D01*
G01*
G37*
G36*
G01*
X100240000Y-49110001D02*
X100240000Y-48439999D01*
G75*
G02*
X100489999Y-48190000I249999J0D01*
G01*
X101160001Y-48190000D01*
G75*
G02*
X101410000Y-48439999I0J-249999D01*
G01*
X101410000Y-49110001D01*
G75*
G02*
X101160001Y-49360000I-249999J0D01*
G01*
X100489999Y-49360000D01*
G75*
G02*
X100240000Y-49110001I0J249999D01*
G01*
G37*
G36*
G01*
X100125000Y-47837500D02*
X100125000Y-47137500D01*
G75*
G02*
X100187500Y-47075000I62500J0D01*
G01*
X100312500Y-47075000D01*
G75*
G02*
X100375000Y-47137500I0J-62500D01*
G01*
X100375000Y-47837500D01*
G75*
G02*
X100312500Y-47900000I-62500J0D01*
G01*
X100187500Y-47900000D01*
G75*
G02*
X100125000Y-47837500I0J62500D01*
G01*
G37*
G36*
G01*
X100625000Y-47837500D02*
X100625000Y-47137500D01*
G75*
G02*
X100687500Y-47075000I62500J0D01*
G01*
X100812500Y-47075000D01*
G75*
G02*
X100875000Y-47137500I0J-62500D01*
G01*
X100875000Y-47837500D01*
G75*
G02*
X100812500Y-47900000I-62500J0D01*
G01*
X100687500Y-47900000D01*
G75*
G02*
X100625000Y-47837500I0J62500D01*
G01*
G37*
G36*
G01*
X101125000Y-47837500D02*
X101125000Y-47137500D01*
G75*
G02*
X101187500Y-47075000I62500J0D01*
G01*
X101312500Y-47075000D01*
G75*
G02*
X101375000Y-47137500I0J-62500D01*
G01*
X101375000Y-47837500D01*
G75*
G02*
X101312500Y-47900000I-62500J0D01*
G01*
X101187500Y-47900000D01*
G75*
G02*
X101125000Y-47837500I0J62500D01*
G01*
G37*
G36*
G01*
X101625000Y-47837500D02*
X101625000Y-47137500D01*
G75*
G02*
X101687500Y-47075000I62500J0D01*
G01*
X101812500Y-47075000D01*
G75*
G02*
X101875000Y-47137500I0J-62500D01*
G01*
X101875000Y-47837500D01*
G75*
G02*
X101812500Y-47900000I-62500J0D01*
G01*
X101687500Y-47900000D01*
G75*
G02*
X101625000Y-47837500I0J62500D01*
G01*
G37*
G36*
G01*
X102125000Y-47837500D02*
X102125000Y-47137500D01*
G75*
G02*
X102187500Y-47075000I62500J0D01*
G01*
X102312500Y-47075000D01*
G75*
G02*
X102375000Y-47137500I0J-62500D01*
G01*
X102375000Y-47837500D01*
G75*
G02*
X102312500Y-47900000I-62500J0D01*
G01*
X102187500Y-47900000D01*
G75*
G02*
X102125000Y-47837500I0J62500D01*
G01*
G37*
G36*
G01*
X102625000Y-47837500D02*
X102625000Y-47137500D01*
G75*
G02*
X102687500Y-47075000I62500J0D01*
G01*
X102812500Y-47075000D01*
G75*
G02*
X102875000Y-47137500I0J-62500D01*
G01*
X102875000Y-47837500D01*
G75*
G02*
X102812500Y-47900000I-62500J0D01*
G01*
X102687500Y-47900000D01*
G75*
G02*
X102625000Y-47837500I0J62500D01*
G01*
G37*
G36*
G01*
X103050000Y-48262500D02*
X103050000Y-48137500D01*
G75*
G02*
X103112500Y-48075000I62500J0D01*
G01*
X103812500Y-48075000D01*
G75*
G02*
X103875000Y-48137500I0J-62500D01*
G01*
X103875000Y-48262500D01*
G75*
G02*
X103812500Y-48325000I-62500J0D01*
G01*
X103112500Y-48325000D01*
G75*
G02*
X103050000Y-48262500I0J62500D01*
G01*
G37*
G36*
G01*
X103050000Y-48762500D02*
X103050000Y-48637500D01*
G75*
G02*
X103112500Y-48575000I62500J0D01*
G01*
X103812500Y-48575000D01*
G75*
G02*
X103875000Y-48637500I0J-62500D01*
G01*
X103875000Y-48762500D01*
G75*
G02*
X103812500Y-48825000I-62500J0D01*
G01*
X103112500Y-48825000D01*
G75*
G02*
X103050000Y-48762500I0J62500D01*
G01*
G37*
G36*
G01*
X103050000Y-49262500D02*
X103050000Y-49137500D01*
G75*
G02*
X103112500Y-49075000I62500J0D01*
G01*
X103812500Y-49075000D01*
G75*
G02*
X103875000Y-49137500I0J-62500D01*
G01*
X103875000Y-49262500D01*
G75*
G02*
X103812500Y-49325000I-62500J0D01*
G01*
X103112500Y-49325000D01*
G75*
G02*
X103050000Y-49262500I0J62500D01*
G01*
G37*
G36*
G01*
X103050000Y-49762500D02*
X103050000Y-49637500D01*
G75*
G02*
X103112500Y-49575000I62500J0D01*
G01*
X103812500Y-49575000D01*
G75*
G02*
X103875000Y-49637500I0J-62500D01*
G01*
X103875000Y-49762500D01*
G75*
G02*
X103812500Y-49825000I-62500J0D01*
G01*
X103112500Y-49825000D01*
G75*
G02*
X103050000Y-49762500I0J62500D01*
G01*
G37*
G36*
G01*
X103050000Y-50262500D02*
X103050000Y-50137500D01*
G75*
G02*
X103112500Y-50075000I62500J0D01*
G01*
X103812500Y-50075000D01*
G75*
G02*
X103875000Y-50137500I0J-62500D01*
G01*
X103875000Y-50262500D01*
G75*
G02*
X103812500Y-50325000I-62500J0D01*
G01*
X103112500Y-50325000D01*
G75*
G02*
X103050000Y-50262500I0J62500D01*
G01*
G37*
G36*
G01*
X103050000Y-50762500D02*
X103050000Y-50637500D01*
G75*
G02*
X103112500Y-50575000I62500J0D01*
G01*
X103812500Y-50575000D01*
G75*
G02*
X103875000Y-50637500I0J-62500D01*
G01*
X103875000Y-50762500D01*
G75*
G02*
X103812500Y-50825000I-62500J0D01*
G01*
X103112500Y-50825000D01*
G75*
G02*
X103050000Y-50762500I0J62500D01*
G01*
G37*
G36*
G01*
X102625000Y-51762500D02*
X102625000Y-51062500D01*
G75*
G02*
X102687500Y-51000000I62500J0D01*
G01*
X102812500Y-51000000D01*
G75*
G02*
X102875000Y-51062500I0J-62500D01*
G01*
X102875000Y-51762500D01*
G75*
G02*
X102812500Y-51825000I-62500J0D01*
G01*
X102687500Y-51825000D01*
G75*
G02*
X102625000Y-51762500I0J62500D01*
G01*
G37*
G36*
G01*
X102125000Y-51762500D02*
X102125000Y-51062500D01*
G75*
G02*
X102187500Y-51000000I62500J0D01*
G01*
X102312500Y-51000000D01*
G75*
G02*
X102375000Y-51062500I0J-62500D01*
G01*
X102375000Y-51762500D01*
G75*
G02*
X102312500Y-51825000I-62500J0D01*
G01*
X102187500Y-51825000D01*
G75*
G02*
X102125000Y-51762500I0J62500D01*
G01*
G37*
G36*
G01*
X101625000Y-51762500D02*
X101625000Y-51062500D01*
G75*
G02*
X101687500Y-51000000I62500J0D01*
G01*
X101812500Y-51000000D01*
G75*
G02*
X101875000Y-51062500I0J-62500D01*
G01*
X101875000Y-51762500D01*
G75*
G02*
X101812500Y-51825000I-62500J0D01*
G01*
X101687500Y-51825000D01*
G75*
G02*
X101625000Y-51762500I0J62500D01*
G01*
G37*
G36*
G01*
X101125000Y-51762500D02*
X101125000Y-51062500D01*
G75*
G02*
X101187500Y-51000000I62500J0D01*
G01*
X101312500Y-51000000D01*
G75*
G02*
X101375000Y-51062500I0J-62500D01*
G01*
X101375000Y-51762500D01*
G75*
G02*
X101312500Y-51825000I-62500J0D01*
G01*
X101187500Y-51825000D01*
G75*
G02*
X101125000Y-51762500I0J62500D01*
G01*
G37*
G36*
G01*
X100625000Y-51762500D02*
X100625000Y-51062500D01*
G75*
G02*
X100687500Y-51000000I62500J0D01*
G01*
X100812500Y-51000000D01*
G75*
G02*
X100875000Y-51062500I0J-62500D01*
G01*
X100875000Y-51762500D01*
G75*
G02*
X100812500Y-51825000I-62500J0D01*
G01*
X100687500Y-51825000D01*
G75*
G02*
X100625000Y-51762500I0J62500D01*
G01*
G37*
G36*
G01*
X100125000Y-51762500D02*
X100125000Y-51062500D01*
G75*
G02*
X100187500Y-51000000I62500J0D01*
G01*
X100312500Y-51000000D01*
G75*
G02*
X100375000Y-51062500I0J-62500D01*
G01*
X100375000Y-51762500D01*
G75*
G02*
X100312500Y-51825000I-62500J0D01*
G01*
X100187500Y-51825000D01*
G75*
G02*
X100125000Y-51762500I0J62500D01*
G01*
G37*
G36*
G01*
X99125000Y-50762500D02*
X99125000Y-50637500D01*
G75*
G02*
X99187500Y-50575000I62500J0D01*
G01*
X99887500Y-50575000D01*
G75*
G02*
X99950000Y-50637500I0J-62500D01*
G01*
X99950000Y-50762500D01*
G75*
G02*
X99887500Y-50825000I-62500J0D01*
G01*
X99187500Y-50825000D01*
G75*
G02*
X99125000Y-50762500I0J62500D01*
G01*
G37*
G36*
G01*
X99125000Y-50262500D02*
X99125000Y-50137500D01*
G75*
G02*
X99187500Y-50075000I62500J0D01*
G01*
X99887500Y-50075000D01*
G75*
G02*
X99950000Y-50137500I0J-62500D01*
G01*
X99950000Y-50262500D01*
G75*
G02*
X99887500Y-50325000I-62500J0D01*
G01*
X99187500Y-50325000D01*
G75*
G02*
X99125000Y-50262500I0J62500D01*
G01*
G37*
G36*
G01*
X99125000Y-49762500D02*
X99125000Y-49637500D01*
G75*
G02*
X99187500Y-49575000I62500J0D01*
G01*
X99887500Y-49575000D01*
G75*
G02*
X99950000Y-49637500I0J-62500D01*
G01*
X99950000Y-49762500D01*
G75*
G02*
X99887500Y-49825000I-62500J0D01*
G01*
X99187500Y-49825000D01*
G75*
G02*
X99125000Y-49762500I0J62500D01*
G01*
G37*
G36*
G01*
X99125000Y-49262500D02*
X99125000Y-49137500D01*
G75*
G02*
X99187500Y-49075000I62500J0D01*
G01*
X99887500Y-49075000D01*
G75*
G02*
X99950000Y-49137500I0J-62500D01*
G01*
X99950000Y-49262500D01*
G75*
G02*
X99887500Y-49325000I-62500J0D01*
G01*
X99187500Y-49325000D01*
G75*
G02*
X99125000Y-49262500I0J62500D01*
G01*
G37*
G36*
G01*
X99125000Y-48762500D02*
X99125000Y-48637500D01*
G75*
G02*
X99187500Y-48575000I62500J0D01*
G01*
X99887500Y-48575000D01*
G75*
G02*
X99950000Y-48637500I0J-62500D01*
G01*
X99950000Y-48762500D01*
G75*
G02*
X99887500Y-48825000I-62500J0D01*
G01*
X99187500Y-48825000D01*
G75*
G02*
X99125000Y-48762500I0J62500D01*
G01*
G37*
G36*
G01*
X99125000Y-48262500D02*
X99125000Y-48137500D01*
G75*
G02*
X99187500Y-48075000I62500J0D01*
G01*
X99887500Y-48075000D01*
G75*
G02*
X99950000Y-48137500I0J-62500D01*
G01*
X99950000Y-48262500D01*
G75*
G02*
X99887500Y-48325000I-62500J0D01*
G01*
X99187500Y-48325000D01*
G75*
G02*
X99125000Y-48262500I0J62500D01*
G01*
G37*
%TD*%
%TO.C,U1*%
G36*
G01*
X100915000Y-55382500D02*
X100915000Y-55737500D01*
G75*
G02*
X100737500Y-55915000I-177500J0D01*
G01*
X100382500Y-55915000D01*
G75*
G02*
X100205000Y-55737500I0J177500D01*
G01*
X100205000Y-55382500D01*
G75*
G02*
X100382500Y-55205000I177500J0D01*
G01*
X100737500Y-55205000D01*
G75*
G02*
X100915000Y-55382500I0J-177500D01*
G01*
G37*
G36*
G01*
X100915000Y-56262500D02*
X100915000Y-56617500D01*
G75*
G02*
X100737500Y-56795000I-177500J0D01*
G01*
X100382500Y-56795000D01*
G75*
G02*
X100205000Y-56617500I0J177500D01*
G01*
X100205000Y-56262500D01*
G75*
G02*
X100382500Y-56085000I177500J0D01*
G01*
X100737500Y-56085000D01*
G75*
G02*
X100915000Y-56262500I0J-177500D01*
G01*
G37*
G36*
G01*
X101795000Y-55382500D02*
X101795000Y-55737500D01*
G75*
G02*
X101617500Y-55915000I-177500J0D01*
G01*
X101262500Y-55915000D01*
G75*
G02*
X101085000Y-55737500I0J177500D01*
G01*
X101085000Y-55382500D01*
G75*
G02*
X101262500Y-55205000I177500J0D01*
G01*
X101617500Y-55205000D01*
G75*
G02*
X101795000Y-55382500I0J-177500D01*
G01*
G37*
G36*
G01*
X101795000Y-56262500D02*
X101795000Y-56617500D01*
G75*
G02*
X101617500Y-56795000I-177500J0D01*
G01*
X101262500Y-56795000D01*
G75*
G02*
X101085000Y-56617500I0J177500D01*
G01*
X101085000Y-56262500D01*
G75*
G02*
X101262500Y-56085000I177500J0D01*
G01*
X101617500Y-56085000D01*
G75*
G02*
X101795000Y-56262500I0J-177500D01*
G01*
G37*
G36*
G01*
X101875000Y-57137500D02*
X101875000Y-57787500D01*
G75*
G02*
X101812500Y-57850000I-62500J0D01*
G01*
X101687500Y-57850000D01*
G75*
G02*
X101625000Y-57787500I0J62500D01*
G01*
X101625000Y-57137500D01*
G75*
G02*
X101687500Y-57075000I62500J0D01*
G01*
X101812500Y-57075000D01*
G75*
G02*
X101875000Y-57137500I0J-62500D01*
G01*
G37*
G36*
G01*
X101375000Y-57137500D02*
X101375000Y-57787500D01*
G75*
G02*
X101312500Y-57850000I-62500J0D01*
G01*
X101187500Y-57850000D01*
G75*
G02*
X101125000Y-57787500I0J62500D01*
G01*
X101125000Y-57137500D01*
G75*
G02*
X101187500Y-57075000I62500J0D01*
G01*
X101312500Y-57075000D01*
G75*
G02*
X101375000Y-57137500I0J-62500D01*
G01*
G37*
G36*
G01*
X100875000Y-57137500D02*
X100875000Y-57787500D01*
G75*
G02*
X100812500Y-57850000I-62500J0D01*
G01*
X100687500Y-57850000D01*
G75*
G02*
X100625000Y-57787500I0J62500D01*
G01*
X100625000Y-57137500D01*
G75*
G02*
X100687500Y-57075000I62500J0D01*
G01*
X100812500Y-57075000D01*
G75*
G02*
X100875000Y-57137500I0J-62500D01*
G01*
G37*
G36*
G01*
X100375000Y-57137500D02*
X100375000Y-57787500D01*
G75*
G02*
X100312500Y-57850000I-62500J0D01*
G01*
X100187500Y-57850000D01*
G75*
G02*
X100125000Y-57787500I0J62500D01*
G01*
X100125000Y-57137500D01*
G75*
G02*
X100187500Y-57075000I62500J0D01*
G01*
X100312500Y-57075000D01*
G75*
G02*
X100375000Y-57137500I0J-62500D01*
G01*
G37*
G36*
G01*
X99925000Y-56687500D02*
X99925000Y-56812500D01*
G75*
G02*
X99862500Y-56875000I-62500J0D01*
G01*
X99212500Y-56875000D01*
G75*
G02*
X99150000Y-56812500I0J62500D01*
G01*
X99150000Y-56687500D01*
G75*
G02*
X99212500Y-56625000I62500J0D01*
G01*
X99862500Y-56625000D01*
G75*
G02*
X99925000Y-56687500I0J-62500D01*
G01*
G37*
G36*
G01*
X99925000Y-56187500D02*
X99925000Y-56312500D01*
G75*
G02*
X99862500Y-56375000I-62500J0D01*
G01*
X99212500Y-56375000D01*
G75*
G02*
X99150000Y-56312500I0J62500D01*
G01*
X99150000Y-56187500D01*
G75*
G02*
X99212500Y-56125000I62500J0D01*
G01*
X99862500Y-56125000D01*
G75*
G02*
X99925000Y-56187500I0J-62500D01*
G01*
G37*
G36*
G01*
X99925000Y-55687500D02*
X99925000Y-55812500D01*
G75*
G02*
X99862500Y-55875000I-62500J0D01*
G01*
X99212500Y-55875000D01*
G75*
G02*
X99150000Y-55812500I0J62500D01*
G01*
X99150000Y-55687500D01*
G75*
G02*
X99212500Y-55625000I62500J0D01*
G01*
X99862500Y-55625000D01*
G75*
G02*
X99925000Y-55687500I0J-62500D01*
G01*
G37*
G36*
G01*
X99925000Y-55187500D02*
X99925000Y-55312500D01*
G75*
G02*
X99862500Y-55375000I-62500J0D01*
G01*
X99212500Y-55375000D01*
G75*
G02*
X99150000Y-55312500I0J62500D01*
G01*
X99150000Y-55187500D01*
G75*
G02*
X99212500Y-55125000I62500J0D01*
G01*
X99862500Y-55125000D01*
G75*
G02*
X99925000Y-55187500I0J-62500D01*
G01*
G37*
G36*
G01*
X100375000Y-54212500D02*
X100375000Y-54862500D01*
G75*
G02*
X100312500Y-54925000I-62500J0D01*
G01*
X100187500Y-54925000D01*
G75*
G02*
X100125000Y-54862500I0J62500D01*
G01*
X100125000Y-54212500D01*
G75*
G02*
X100187500Y-54150000I62500J0D01*
G01*
X100312500Y-54150000D01*
G75*
G02*
X100375000Y-54212500I0J-62500D01*
G01*
G37*
G36*
G01*
X100875000Y-54212500D02*
X100875000Y-54862500D01*
G75*
G02*
X100812500Y-54925000I-62500J0D01*
G01*
X100687500Y-54925000D01*
G75*
G02*
X100625000Y-54862500I0J62500D01*
G01*
X100625000Y-54212500D01*
G75*
G02*
X100687500Y-54150000I62500J0D01*
G01*
X100812500Y-54150000D01*
G75*
G02*
X100875000Y-54212500I0J-62500D01*
G01*
G37*
G36*
G01*
X101375000Y-54212500D02*
X101375000Y-54862500D01*
G75*
G02*
X101312500Y-54925000I-62500J0D01*
G01*
X101187500Y-54925000D01*
G75*
G02*
X101125000Y-54862500I0J62500D01*
G01*
X101125000Y-54212500D01*
G75*
G02*
X101187500Y-54150000I62500J0D01*
G01*
X101312500Y-54150000D01*
G75*
G02*
X101375000Y-54212500I0J-62500D01*
G01*
G37*
G36*
G01*
X101875000Y-54212500D02*
X101875000Y-54862500D01*
G75*
G02*
X101812500Y-54925000I-62500J0D01*
G01*
X101687500Y-54925000D01*
G75*
G02*
X101625000Y-54862500I0J62500D01*
G01*
X101625000Y-54212500D01*
G75*
G02*
X101687500Y-54150000I62500J0D01*
G01*
X101812500Y-54150000D01*
G75*
G02*
X101875000Y-54212500I0J-62500D01*
G01*
G37*
G36*
G01*
X102850000Y-55187500D02*
X102850000Y-55312500D01*
G75*
G02*
X102787500Y-55375000I-62500J0D01*
G01*
X102137500Y-55375000D01*
G75*
G02*
X102075000Y-55312500I0J62500D01*
G01*
X102075000Y-55187500D01*
G75*
G02*
X102137500Y-55125000I62500J0D01*
G01*
X102787500Y-55125000D01*
G75*
G02*
X102850000Y-55187500I0J-62500D01*
G01*
G37*
G36*
G01*
X102850000Y-55687500D02*
X102850000Y-55812500D01*
G75*
G02*
X102787500Y-55875000I-62500J0D01*
G01*
X102137500Y-55875000D01*
G75*
G02*
X102075000Y-55812500I0J62500D01*
G01*
X102075000Y-55687500D01*
G75*
G02*
X102137500Y-55625000I62500J0D01*
G01*
X102787500Y-55625000D01*
G75*
G02*
X102850000Y-55687500I0J-62500D01*
G01*
G37*
G36*
G01*
X102850000Y-56187500D02*
X102850000Y-56312500D01*
G75*
G02*
X102787500Y-56375000I-62500J0D01*
G01*
X102137500Y-56375000D01*
G75*
G02*
X102075000Y-56312500I0J62500D01*
G01*
X102075000Y-56187500D01*
G75*
G02*
X102137500Y-56125000I62500J0D01*
G01*
X102787500Y-56125000D01*
G75*
G02*
X102850000Y-56187500I0J-62500D01*
G01*
G37*
G36*
G01*
X102850000Y-56687500D02*
X102850000Y-56812500D01*
G75*
G02*
X102787500Y-56875000I-62500J0D01*
G01*
X102137500Y-56875000D01*
G75*
G02*
X102075000Y-56812500I0J62500D01*
G01*
X102075000Y-56687500D01*
G75*
G02*
X102137500Y-56625000I62500J0D01*
G01*
X102787500Y-56625000D01*
G75*
G02*
X102850000Y-56687500I0J-62500D01*
G01*
G37*
%TD*%
%TO.C,Cby1*%
G36*
G01*
X97950000Y-57575000D02*
X97450000Y-57575000D01*
G75*
G02*
X97225000Y-57350000I0J225000D01*
G01*
X97225000Y-56900000D01*
G75*
G02*
X97450000Y-56675000I225000J0D01*
G01*
X97950000Y-56675000D01*
G75*
G02*
X98175000Y-56900000I0J-225000D01*
G01*
X98175000Y-57350000D01*
G75*
G02*
X97950000Y-57575000I-225000J0D01*
G01*
G37*
G36*
G01*
X97950000Y-59125000D02*
X97450000Y-59125000D01*
G75*
G02*
X97225000Y-58900000I0J225000D01*
G01*
X97225000Y-58450000D01*
G75*
G02*
X97450000Y-58225000I225000J0D01*
G01*
X97950000Y-58225000D01*
G75*
G02*
X98175000Y-58450000I0J-225000D01*
G01*
X98175000Y-58900000D01*
G75*
G02*
X97950000Y-59125000I-225000J0D01*
G01*
G37*
%TD*%
%TO.C,Cby2*%
G36*
G01*
X100250000Y-43675000D02*
X99750000Y-43675000D01*
G75*
G02*
X99525000Y-43450000I0J225000D01*
G01*
X99525000Y-43000000D01*
G75*
G02*
X99750000Y-42775000I225000J0D01*
G01*
X100250000Y-42775000D01*
G75*
G02*
X100475000Y-43000000I0J-225000D01*
G01*
X100475000Y-43450000D01*
G75*
G02*
X100250000Y-43675000I-225000J0D01*
G01*
G37*
G36*
G01*
X100250000Y-45225000D02*
X99750000Y-45225000D01*
G75*
G02*
X99525000Y-45000000I0J225000D01*
G01*
X99525000Y-44550000D01*
G75*
G02*
X99750000Y-44325000I225000J0D01*
G01*
X100250000Y-44325000D01*
G75*
G02*
X100475000Y-44550000I0J-225000D01*
G01*
X100475000Y-45000000D01*
G75*
G02*
X100250000Y-45225000I-225000J0D01*
G01*
G37*
%TD*%
%TO.C,Cby3*%
G36*
G01*
X98250000Y-45225000D02*
X97750000Y-45225000D01*
G75*
G02*
X97525000Y-45000000I0J225000D01*
G01*
X97525000Y-44550000D01*
G75*
G02*
X97750000Y-44325000I225000J0D01*
G01*
X98250000Y-44325000D01*
G75*
G02*
X98475000Y-44550000I0J-225000D01*
G01*
X98475000Y-45000000D01*
G75*
G02*
X98250000Y-45225000I-225000J0D01*
G01*
G37*
G36*
G01*
X98250000Y-43675000D02*
X97750000Y-43675000D01*
G75*
G02*
X97525000Y-43450000I0J225000D01*
G01*
X97525000Y-43000000D01*
G75*
G02*
X97750000Y-42775000I225000J0D01*
G01*
X98250000Y-42775000D01*
G75*
G02*
X98475000Y-43000000I0J-225000D01*
G01*
X98475000Y-43450000D01*
G75*
G02*
X98250000Y-43675000I-225000J0D01*
G01*
G37*
%TD*%
%TO.C,Cf1*%
G36*
G01*
X98150000Y-59775000D02*
X98650000Y-59775000D01*
G75*
G02*
X98875000Y-60000000I0J-225000D01*
G01*
X98875000Y-60450000D01*
G75*
G02*
X98650000Y-60675000I-225000J0D01*
G01*
X98150000Y-60675000D01*
G75*
G02*
X97925000Y-60450000I0J225000D01*
G01*
X97925000Y-60000000D01*
G75*
G02*
X98150000Y-59775000I225000J0D01*
G01*
G37*
G36*
G01*
X98150000Y-61325000D02*
X98650000Y-61325000D01*
G75*
G02*
X98875000Y-61550000I0J-225000D01*
G01*
X98875000Y-62000000D01*
G75*
G02*
X98650000Y-62225000I-225000J0D01*
G01*
X98150000Y-62225000D01*
G75*
G02*
X97925000Y-62000000I0J225000D01*
G01*
X97925000Y-61550000D01*
G75*
G02*
X98150000Y-61325000I225000J0D01*
G01*
G37*
%TD*%
D10*
%TO.C,Y1*%
X100250000Y-60100000D03*
X102750000Y-60100000D03*
%TD*%
M02*
